<svg width="198" height="39" viewBox="0 0 198 39" fill="none" xmlns="http://www.w3.org/2000/svg">
<mask id="mask0_1_23" style="mask-type:luminance" maskUnits="userSpaceOnUse" x="0" y="1" width="198" height="37">
<path d="M197.896 1.12115H0V37.8793H197.896V1.12115Z" fill="white"/>
</mask>
<g mask="url(#mask0_1_23)">
<path d="M51.203 36.9072C51.203 37.2937 50.8829 37.4465 50.2376 37.3599H35.9086C35.3091 37.3599 35.0093 37.2328 35.0093 36.9733C35.0093 36.7596 35.5123 36.6273 36.5133 36.5867C37.7786 36.5459 38.4136 36.1541 38.4136 35.4216V20.9677C38.4136 16.5212 38.2612 13.84 37.9615 12.9344C37.5296 11.6829 36.4523 11.0571 34.7247 11.0571C33.1293 11.0571 31.8743 11.744 30.9698 13.1278C30.5835 13.6874 30.3651 14.3132 30.3245 15C30.238 15.8191 30.1974 18.0373 30.1974 21.6596V33.941C30.1974 35.2334 30.3143 35.9915 30.553 36.205C30.7869 36.4187 31.5896 36.5256 32.9616 36.5256C33.3477 36.5256 33.5409 36.6324 33.5409 36.8461C33.5409 37.192 33.307 37.3651 32.8346 37.3651C32.4077 37.3651 32.0622 37.3448 31.8082 37.2989L19.344 37.1717C18.9578 37.1717 18.7647 37.0445 18.7647 36.7851C18.7647 36.5256 19.2779 36.3984 20.3044 36.3984C21.0768 36.3984 21.5239 36.2916 21.6508 36.0779L21.7779 35.4318V19.6349C21.7779 15.5953 21.5442 13.1532 21.0716 12.3138C20.5991 11.4743 19.6336 11.0571 18.1805 11.0571C16.4223 11.0571 15.1165 11.7897 14.2628 13.255C13.9631 13.8146 13.7801 14.3844 13.7192 14.9695C13.6582 15.5545 13.6226 17.2437 13.6226 20.0418V32.8422C13.6226 34.8263 13.7395 35.9151 13.9783 36.1085C14.212 36.3017 14.8015 36.3984 15.7466 36.3984H16.712C17.1388 36.3984 17.3523 36.5154 17.3523 36.7546C17.3523 37.0344 17.1591 37.1717 16.7729 37.1717H12.5302C9.10547 37.2226 7.28132 37.2634 7.06792 37.2887C5.01003 37.3396 3.49077 37.3651 2.50502 37.3651H1.60565C1.04672 37.3651 0.772338 37.192 0.772338 36.8513C0.772338 36.551 0.965422 36.3984 1.35159 36.3984L2.83022 36.6579C3.55683 36.6985 4.15639 36.5306 4.62895 36.1389C4.96939 35.8387 5.14214 34.9331 5.14214 33.4222V22.7534C5.14214 16.7602 5.05577 13.55 4.883 13.1176C4.53749 12.7309 3.2113 12.5376 0.899368 12.5376C0.29979 12.5376 0 12.3901 0 12.0848C0 11.7439 0.279464 11.571 0.833312 11.571C5.11674 11.4845 8.92762 10.5433 12.271 8.74227C12.6572 8.52858 12.9367 8.42175 13.1043 8.42175C13.3178 8.42175 13.4245 8.59473 13.4245 8.93559C13.4245 9.57662 13.4041 10.1159 13.3584 10.5433V13.2448C15.3248 10.0294 18.2313 8.42175 22.0777 8.42175C26.3966 8.42175 28.9372 10.1821 29.7096 13.6976C30.6903 11.8101 31.8894 10.4568 33.302 9.64276C34.7146 8.82875 36.5691 8.42175 38.8812 8.42175C44.3079 8.42175 47.0263 11.4387 47.0263 17.4674V33.3611C47.0263 34.7399 47.0771 35.5794 47.1889 35.8795C47.2955 36.1796 47.6461 36.3525 48.2508 36.3984C49.1095 36.4848 49.8769 36.5256 50.5627 36.5256C50.9895 36.5256 51.203 36.6528 51.203 36.9122V36.9072Z" fill="#240606"/>
<path d="M53.5301 12.1969C56.7719 8.95104 60.6641 7.60284 65.2066 8.1472C68.7787 8.56947 71.7614 9.98382 74.1546 12.3801C77.0001 15.2291 78.438 18.7192 78.4685 22.8402C78.499 26.9662 77.122 30.4207 74.3324 33.2087C71.5429 35.9967 67.9098 37.5586 63.7941 37.5281C59.6733 37.4975 56.147 36.012 53.2099 33.0714C50.3951 30.2528 49.018 26.7932 49.074 22.7029C49.1348 18.6072 50.6185 15.107 53.5251 12.1969H53.5301ZM60.4354 19.0193C56.6804 22.7791 54.3633 25.6129 53.4793 27.5207C52.5088 29.6423 52.6511 31.3313 53.9162 32.5982C55.0901 33.7734 56.8176 33.8803 59.0991 32.9238C61.3805 31.9621 63.9465 30.0594 66.7919 27.2105C70.7603 23.237 73.184 20.0267 74.0682 17.5745C74.7693 15.6056 74.5459 14.0539 73.4025 12.9041C71.99 11.4898 70.2066 11.4033 68.0571 12.6497C66.0297 13.8351 63.4892 15.9567 60.4302 19.0193H60.4354Z" fill="#240606"/>
<path d="M98.2089 33.7121C94.9671 36.958 91.0749 38.3061 86.5323 37.7618C82.9603 37.3396 79.9777 35.9252 77.5845 33.5289C74.739 30.6798 73.301 27.1898 73.2705 23.0688C73.24 18.9428 74.6171 15.4883 77.4066 12.7003C80.313 9.79023 83.8291 8.35043 87.9449 8.38097C92.0657 8.41149 95.5921 9.89706 98.529 12.8377C101.466 15.7783 102.721 19.1158 102.665 23.2061C102.604 27.3018 101.12 30.802 98.214 33.7121H98.2089ZM91.3036 26.8897C95.0586 23.1299 97.3756 20.2961 98.2597 18.3882C99.2303 16.2667 99.0879 14.5776 97.8227 13.3108C96.649 12.1356 94.9213 12.0288 92.6399 12.9852C90.3584 13.9468 87.7925 15.8496 84.947 18.6985C80.9786 22.672 78.5548 25.8823 77.6708 28.3345C76.9695 30.3033 77.1932 31.855 78.3364 33.0049C79.749 34.4193 81.5325 34.5057 83.6817 33.2592C85.7091 32.0739 88.2499 29.9523 91.3086 26.8897H91.3036Z" fill="#240606"/>
<path d="M129.062 12.2525C132.304 9.00658 136.196 7.65838 140.738 8.20274C144.31 8.62502 147.293 10.0394 149.686 12.4356C152.532 15.2847 153.97 18.7748 154 22.8958C154.031 27.0218 152.654 30.4762 149.864 33.2642C146.958 36.1743 143.441 37.614 139.326 37.5835C135.205 37.5531 131.679 36.0675 128.742 33.1268C125.805 30.1862 124.55 26.8487 124.606 22.7583C124.666 18.6628 126.15 15.1626 129.057 12.2525H129.062ZM135.967 19.0749C132.212 22.8347 129.895 25.6685 129.011 27.5763C128.04 29.6979 128.183 31.3869 129.448 32.6537C130.622 33.8289 132.349 33.9359 134.631 32.9794C136.912 32.0177 139.478 30.115 142.324 27.2659C146.292 23.2926 148.716 20.0822 149.6 17.6301C150.301 15.6612 150.078 14.1094 148.934 12.9596C147.522 11.5453 145.738 11.4588 143.589 12.7053C141.561 13.8907 139.021 16.0122 135.962 19.0749H135.967Z" fill="#240606"/>
<path d="M153.208 12.4818C156.449 9.2359 160.342 7.88768 164.884 8.43206C168.456 8.85433 171.439 10.2687 173.833 12.6649C176.678 15.514 178.116 19.004 178.146 23.125C178.176 27.2511 176.799 30.7055 174.01 33.4935C171.103 36.4036 167.588 37.8433 163.472 37.8129C159.351 37.7824 155.824 36.2968 152.887 33.3562C150.072 30.5376 148.695 27.078 148.751 22.9876C148.812 18.8921 150.296 15.3919 153.203 12.4818H153.208ZM160.113 19.3042C156.358 23.0639 154.041 25.8978 153.157 27.8055C152.186 29.9271 152.329 31.6162 153.594 32.883C154.768 34.0582 156.495 34.1651 158.777 33.2087C161.058 32.247 163.624 30.3443 166.469 27.4953C170.437 23.5219 172.862 20.3115 173.745 17.8594C174.446 15.8905 174.224 14.3387 173.08 13.189C171.668 11.7746 169.884 11.6881 167.735 12.9346C165.707 14.12 163.167 16.2415 160.108 19.3042H160.113Z" fill="#240606"/>
<path d="M125.165 13.3469C125.165 14.5933 124.799 15.6108 124.072 16.4045C123.345 17.1982 122.4 17.595 121.247 17.595C118.935 17.595 117.776 16.5215 117.776 14.3796C117.776 13.6521 118.056 12.9246 118.61 12.192C118.737 12.019 118.803 11.8715 118.803 11.7443C118.803 11.3576 118.528 11.1643 117.98 11.1643C116.542 11.1643 115.444 12.2988 114.682 14.5628C114.26 15.8449 114.047 18.9889 114.047 23.9952V34.3229C114.047 35.4778 114.626 36.0986 115.78 36.185C116.466 36.2258 117.278 36.2512 118.219 36.2512C118.691 36.2919 118.925 36.4445 118.925 36.704C118.925 37.05 118.732 37.2179 118.346 37.2179H111.471C111.643 37.2179 110.678 37.2179 108.579 37.2179H101.512C101.039 37.2179 100.805 37.0804 100.805 36.8006C100.805 36.5209 101.105 36.3834 101.705 36.3834C103.463 36.3428 104.52 36.1597 104.885 35.8391C105.251 35.5186 105.429 34.5672 105.429 32.9849L105.363 15.6617C105.363 14.2067 105.16 13.2044 104.753 12.6448C104.347 12.0902 103.437 11.7443 102.025 11.6171C100.912 11.5357 100.277 11.4746 100.13 11.4339C99.9772 11.3932 99.9059 11.2508 99.9059 11.0117C99.9059 10.7726 100.079 10.6504 100.419 10.6504H102.797C106.095 10.6504 109.652 9.96363 113.463 8.58997C113.676 9.44977 113.783 10.4317 113.783 11.5509V14.2525C114.596 12.1767 115.485 10.7115 116.45 9.86696C117.416 9.01732 118.666 8.59505 120.21 8.59505C121.664 8.59505 122.853 9.04277 123.777 9.94835C124.697 10.8489 125.159 11.9834 125.159 13.357L125.165 13.3469Z" fill="#240606"/>
<path d="M197.896 32.3234C197.896 32.7964 197.486 33.4171 196.668 34.1905C194.553 36.2052 191.641 37.2125 187.928 37.2125C184.518 37.2125 182.277 36.3781 181.194 34.7043C180.763 34.0632 180.514 33.463 180.448 32.9033C180.381 32.3487 180.35 30.909 180.35 28.5941V25.506C180.438 24.6919 180.479 23.8321 180.479 22.9317L180.35 21.5784V11.159C180.35 10.3857 180.245 9.93795 180.031 9.80567C179.818 9.67848 179.172 9.61235 178.106 9.61235C176.821 9.61235 176.179 9.44445 176.179 9.09849C176.179 8.83903 176.413 8.67113 176.885 8.58465C180.91 8.45746 184.38 6.26979 187.292 2.02166C187.678 1.42132 187.978 1.12115 188.191 1.12115C188.451 1.12115 188.577 1.42132 188.577 2.02166C188.537 5.71015 188.684 7.72484 189.025 8.06572C189.366 8.41167 190.418 8.57956 192.175 8.57956C193.933 8.57956 195.239 8.49306 195.965 8.3201C196.052 8.27939 196.138 8.25396 196.225 8.25396C196.398 8.25396 196.484 8.38624 196.484 8.65587C196.484 9.28673 196.21 9.59707 195.655 9.59707C193.913 9.64286 191.982 9.66321 189.858 9.66321H188.968V11.0063C188.968 22.4432 189.056 29.1385 189.223 31.1023C189.614 33.5749 190.833 34.8163 192.876 34.8163C193.79 34.8163 194.965 34.1752 196.398 32.888C197.094 32.2878 197.526 31.9875 197.703 31.9875C197.836 31.9875 197.896 32.0944 197.896 32.3081V32.3234Z" fill="#240606"/>
</g>
</svg>
