<svg width="44" height="13" viewBox="0 0 44 13" fill="none" xmlns="http://www.w3.org/2000/svg">
<mask id="mask0_2_47" style="mask-type:luminance" maskUnits="userSpaceOnUse" x="1" y="0" width="43" height="13">
<path d="M43.5394 0.655701H1.2482V12.3449H43.5394V0.655701Z" fill="white"/>
</mask>
<g mask="url(#mask0_2_47)">
<path d="M1.25654 9.85829L1.2482 9.78502H2.67168L2.68839 9.86642C2.85954 10.6967 3.48987 11.1851 4.65454 11.1851C5.8192 11.1851 6.49964 10.713 6.49964 9.96411V9.95597C6.49964 9.35767 6.1782 9.01985 5.21391 8.78785L3.8614 8.46632C2.25424 8.09187 1.4778 7.36333 1.4778 6.16673V6.15859C1.4778 4.72999 2.76352 3.71655 4.60863 3.71655C6.45372 3.71655 7.6643 4.77883 7.76866 6.16673L7.77702 6.27255H6.41615L6.4078 6.21557C6.29092 5.4097 5.66058 4.87245 4.60444 4.87245C3.54831 4.87245 2.93467 5.36086 2.93467 6.09347V6.10161C2.93467 6.66734 3.31872 7.05807 4.26214 7.28193L5.61466 7.59939C7.33452 8.0064 7.95651 8.66983 7.95651 9.85015V9.85829C7.95651 11.3113 6.54556 12.3329 4.64619 12.3329C2.6383 12.3329 1.4277 11.3357 1.25654 9.85015V9.85829Z" fill="#240606"/>
<path d="M9.86426 10.0654V5.02669H8.62027V3.87486H9.86426V1.62817H11.3378V3.87079H12.9575V5.02262H11.3378V10.0532C11.3378 10.9405 11.7386 11.1888 12.5025 11.1888C12.6736 11.1888 12.8364 11.1643 12.9617 11.1562V12.2836C12.7822 12.308 12.4774 12.3406 12.2019 12.3406C10.6365 12.3406 9.86842 11.6528 9.86842 10.0654H9.86426Z" fill="#240606"/>
<path d="M14.4435 9.26402V3.87524H15.8712V9.01981C15.8712 10.3711 16.5183 11.1118 17.8289 11.1118C19.1397 11.1118 20.0497 10.1757 20.0497 8.7634V3.87524H21.4732V12.1823H20.0497V11.0019H20.0164C19.5572 11.7753 18.6889 12.3451 17.3948 12.3451C15.5288 12.3451 14.4477 11.1647 14.4477 9.27216L14.4435 9.26402Z" fill="#240606"/>
<path d="M22.9052 8.0266V8.01845C22.9052 5.39733 24.362 3.71232 26.4993 3.71232C27.7016 3.71232 28.695 4.30248 29.2253 5.26302H29.2586V0.655701H30.6821V12.1821H29.2586V10.778H29.2253C28.6909 11.7426 27.7433 12.3449 26.5244 12.3449C24.3453 12.3449 22.9052 10.6518 22.9052 8.03067V8.0266ZM29.2712 8.0266V8.01845C29.2712 6.16658 28.2401 4.94555 26.8041 4.94555C25.2972 4.94555 24.362 6.12587 24.362 8.01845V8.0266C24.362 9.93546 25.2972 11.1076 26.8041 11.1076C28.311 11.1076 29.2712 9.88662 29.2712 8.0266Z" fill="#240606"/>
<path d="M32.5189 1.59969C32.5189 1.11128 32.9196 0.728699 33.4123 0.728699C33.9048 0.728699 34.3056 1.11128 34.3056 1.59969C34.3056 2.0881 33.9132 2.47069 33.4123 2.47069C32.9113 2.47069 32.5189 2.07996 32.5189 1.59969ZM32.7025 3.87486H34.1303V12.1819H32.7025V3.87486Z" fill="#240606"/>
<path d="M35.6496 8.02637V8.01009C35.6496 5.36454 37.2401 3.7121 39.5903 3.7121C41.9405 3.7121 43.5393 5.3564 43.5393 8.01009V8.02637C43.5393 10.676 41.9489 12.3406 39.5987 12.3406C37.2484 12.3406 35.6496 10.6719 35.6496 8.02637ZM42.0783 8.02637V8.01009C42.0783 6.06052 41.0973 4.94126 39.5903 4.94126C38.0833 4.94126 37.1065 6.06867 37.1065 8.01009V8.02637C37.1065 9.98408 38.1 11.1074 39.6071 11.1074C41.114 11.1074 42.0824 9.97187 42.0824 8.02637H42.0783Z" fill="#240606"/>
</g>
</svg>
